<svg xmlns="http://www.w3.org/2000/svg" viewBox="0 0 256 256" role="img" aria-labelledby="title desc">
  <title id="title">civiltools app icon</title>
  <desc id="desc">A modern C-shaped civil engineering logo wrapping a small city skyline.</desc>
  <defs>
    <linearGradient id="bg" x1="34" y1="24" x2="224" y2="231" gradientUnits="userSpaceOnUse">
      <stop offset="0" stop-color="#f8fbf9"/>
      <stop offset="1" stop-color="#dce8e5"/>
    </linearGradient>
    <linearGradient id="cmark" x1="55" y1="55" x2="205" y2="202" gradientUnits="userSpaceOnUse">
      <stop offset="0" stop-color="#114b5f"/>
      <stop offset="0.58" stop-color="#156a72"/>
      <stop offset="1" stop-color="#f28c28"/>
    </linearGradient>
    <linearGradient id="tower" x1="86" y1="86" x2="186" y2="177" gradientUnits="userSpaceOnUse">
      <stop offset="0" stop-color="#123a4c"/>
      <stop offset="1" stop-color="#1d5266"/>
    </linearGradient>
  </defs>
  <rect width="256" height="256" rx="46" fill="url(#bg)"/>
  <path d="M203 76a85 85 0 1 0 0 104" fill="none" stroke="#092c38" stroke-width="42" stroke-linecap="round" opacity="0.1"/>
  <path d="M203 76a85 85 0 1 0 0 104" fill="none" stroke="url(#cmark)" stroke-width="30" stroke-linecap="round"/>
  <g fill="url(#tower)" stroke="#0a2531" stroke-width="5" stroke-linejoin="round">
    <path d="M86 177V124H118V177Z"/>
    <path d="M118 177V86L158 104V177Z"/>
    <path d="M158 177V130H186V177Z"/>
  </g>
  <g fill="#eaf6f4">
    <rect x="91" y="128" width="8" height="8" rx="1"/><rect x="103" y="128" width="8" height="8" rx="1"/>
    <rect x="91" y="140" width="8" height="8" rx="1"/><rect x="103" y="140" width="8" height="8" rx="1"/>
    <rect x="91" y="152" width="8" height="8" rx="1"/><rect x="103" y="152" width="8" height="8" rx="1"/>
    <rect x="91" y="164" width="8" height="8" rx="1"/><rect x="103" y="164" width="8" height="8" rx="1"/>
    <rect x="125" y="112" width="9" height="8" rx="1"/><rect x="140" y="112" width="9" height="8" rx="1"/>
    <rect x="125" y="124" width="9" height="8" rx="1"/><rect x="140" y="124" width="9" height="8" rx="1"/>
    <rect x="125" y="136" width="9" height="8" rx="1"/><rect x="140" y="136" width="9" height="8" rx="1"/>
    <rect x="125" y="148" width="9" height="8" rx="1"/><rect x="140" y="148" width="9" height="8" rx="1"/>
    <rect x="125" y="160" width="9" height="8" rx="1"/><rect x="140" y="160" width="9" height="8" rx="1"/>
    <rect x="162" y="138" width="8" height="8" rx="1"/><rect x="173" y="138" width="8" height="8" rx="1"/>
    <rect x="162" y="150" width="8" height="8" rx="1"/><rect x="173" y="150" width="8" height="8" rx="1"/>
    <rect x="162" y="162" width="8" height="8" rx="1"/><rect x="173" y="162" width="8" height="8" rx="1"/>
  </g>
  <path d="M72 65l6 13 13 6-13 6-6 13-6-13-13-6 13-6zM76 189l4 9 9 4-9 4-4 9-4-9-9-4 9-4zM171 54l4 9 9 4-9 4-4 9-4-9-9-4 9-4z" fill="#f28c28"/>
  <circle cx="51" cy="96" r="4" fill="#114b5f" opacity="0.8"/>
  <circle cx="190" cy="47" r="4" fill="#114b5f" opacity="0.8"/>
</svg>